# xmcd CD database file
#
# Track frame offsets:
#	150
#	19812
#	40355
#	60972
#	83322
#	104100
#	123875
#	144617
#	159997
#	181092
#	203132
#
# Disc length: 3055 seconds
#
# Revision: 0
# Processed by: cddbd v1.5PL3 Copyright (c) Steve Scherf et al.
# Submitted via: CDex 1.51
#
DISCID=860bed0b
DTITLE=TUBE - OASIS
DYEAR=1900
DGENRE=Rock
TTITLE0=恋のMagma
TTITLE1=青いメロディー
TTITLE2=Let's Go To The Sea 〜Oasis〜
TTITLE3=太陽は知っている
TTITLE4=Summer Breeze
TTITLE5=We are free
TTITLE6=夕焼けの前に
TTITLE7=青空のピエロ
TTITLE8=Fujisawa Sunlight
TTITLE9=誰のせいでもない
TTITLE10=愛の詩
EXTD=
EXTT0=
EXTT1=
EXTT2=
EXTT3=
EXTT4=
EXTT5=
EXTT6=
EXTT7=
EXTT8=
EXTT9=
EXTT10=
PLAYORDER=
